HIERARCHY
ROOT RootJoint
{
    OFFSET   0.000000   0.000000   0.000000
    CHANNELS 6 Xposition Yposition Zposition Xrotation Yrotation Zrotation
    JOINT pelvis_lowerback
    {
        OFFSET   0.000000   0.093605   0.000000
        CHANNELS 3 Xrotation Yrotation Zrotation
        JOINT lowerback_torso
        {
            OFFSET   0.000000   0.100000   0.000000
            CHANNELS 3 Xrotation Yrotation Zrotation
            JOINT torso_head
            {
                OFFSET   0.000000   0.282350   0.000000
                CHANNELS 3 Xrotation Yrotation Zrotation
                End Site
                {
                    OFFSET   0.000000   0.192650   0.000000
                }
            }
            JOINT rTorso_Clavicle
            {
                OFFSET  -0.001000   0.157500   0.000000
                CHANNELS 3 Xrotation Yrotation Zrotation
                JOINT rShoulder
                {
                    OFFSET  -0.117647   0.000000   0.000000
                    CHANNELS 3 Xrotation Yrotation Zrotation
                    JOINT rElbow
                    {
                        OFFSET  -0.245000   0.000000   0.000000
                        CHANNELS 3 Xrotation Yrotation Zrotation
                        JOINT rWrist
                        {
                            OFFSET  -0.240000   0.000000   0.000000
                            CHANNELS 3 Xrotation Yrotation Zrotation
                            End Site
                            {
                                OFFSET  -0.116353  -0.002500   0.000000
                            }
                        }
                    }
                }
            }
            JOINT lTorso_Clavicle
            {
                OFFSET   0.001000   0.157500   0.000000
                CHANNELS 3 Xrotation Yrotation Zrotation
                JOINT lShoulder
                {
                    OFFSET   0.117647   0.000000   0.000000
                    CHANNELS 3 Xrotation Yrotation Zrotation
                    JOINT lElbow
                    {
                        OFFSET   0.245000   0.000000   0.000000
                        CHANNELS 3 Xrotation Yrotation Zrotation
                        JOINT lWrist
                        {
                            OFFSET   0.240000   0.000000   0.000000
                            CHANNELS 3 Xrotation Yrotation Zrotation
                            End Site
                            {
                                OFFSET   0.116353  -0.002500   0.000000
                            }
                        }
                    }
                }
            }
        }
    }
    JOINT rHip
    {
        OFFSET  -0.100000  -0.051395   0.000000
        CHANNELS 3 Xrotation Yrotation Zrotation
        JOINT rKnee
        {
            OFFSET   0.000000  -0.410000   0.000000
            CHANNELS 3 Xrotation Yrotation Zrotation
            JOINT rAnkle
            {
                OFFSET   0.000000  -0.390000   0.000000
                CHANNELS 3 Xrotation Yrotation Zrotation
                JOINT rToeJoint
                {
                    OFFSET   0.000000  -0.050000   0.130000
                    CHANNELS 3 Xrotation Yrotation Zrotation
                    End Site
                    {
                        OFFSET  -0.010000   0.002000   0.060000
                    }
                }
            }
        }
    }
    JOINT lHip
    {
        OFFSET   0.100000  -0.051395   0.000000
        CHANNELS 3 Xrotation Yrotation Zrotation
        JOINT lKnee
        {
            OFFSET   0.000000  -0.410000   0.000000
            CHANNELS 3 Xrotation Yrotation Zrotation
            JOINT lAnkle
            {
                OFFSET   0.000000  -0.390000   0.000000
                CHANNELS 3 Xrotation Yrotation Zrotation
                JOINT lToeJoint
                {
                    OFFSET   0.000000  -0.050000   0.130000
                    CHANNELS 3 Xrotation Yrotation Zrotation
                    End Site
                    {
                        OFFSET   0.010000   0.002000   0.060000
                    }
                }
            }
        }
    }
}
MOTION
Frames: 8
Frame Time:   0.008333
 -2.199778   0.906424   5.107067  -3.704856 -10.248488   1.688330  10.167333  -3.031026  -0.090683   1.209574  -3.223750   0.525048  -0.408774  -1.802898   1.671710   2.906024  -3.270123   4.061181   6.387454   1.658487  45.703662  -0.025040  71.334711   0.022492   0.907783   1.627644  -4.350684   0.179779  -0.510637  -5.860669  -3.026380  -5.597587 -43.745407  -0.114420 -81.588831  -0.105601  -2.365083  -4.224388   8.806029 -26.306568  -1.630831  -5.720664  66.485373   0.013455   0.001086  -8.242330 -10.046360   3.101688  -1.036087   0.000763  -0.000451   4.007506  -6.292439  -3.907302  17.865541  -0.000608  -0.001163 -13.761159  -2.006216   3.453923  -7.288606  -0.000798   0.002380
 -2.197498   0.905825   5.104039  -3.798598  -9.971728   2.101475  10.144207  -3.210816  -0.286343   1.312253  -3.359732   0.371936  -0.328492  -1.871093   1.661598   2.852363  -3.541726   3.873683   6.200611   1.278672  45.445297  -0.029393  71.790517   0.026122   0.848681   1.448286  -4.224860   0.364455  -0.611844  -6.068557  -2.000094  -6.058505 -44.043460  -0.136394 -80.866517  -0.126142  -2.321934  -4.347399   8.636217 -26.180826  -1.748350  -6.295926  68.806032   0.010373  -0.001278  -7.908636 -10.193507   3.139930  -0.940953   0.000976  -0.000667   3.680585  -6.400028  -4.479225  18.070547  -0.000192  -0.000699 -13.706288  -2.015619   3.622764  -7.111242  -0.000727   0.002147
 -2.195257   0.905089   5.101073  -3.879982  -9.749098   2.522729  10.102403  -3.365505  -0.488115   1.406270  -3.478583   0.200317  -0.253741  -1.935497   1.658727   2.774586  -3.794248   3.658968   5.999574   0.927154  45.173757  -0.033135  72.232216   0.029136   0.797671   1.358615  -4.166754   0.580549  -0.699143  -6.288917  -1.001410  -6.479430 -44.325608  -0.147621 -80.155500  -0.136246  -2.305071  -4.284621   8.364160 -25.987626  -1.852542  -6.871160  70.986201   0.007465  -0.003468  -7.590522 -10.331802   3.176420  -0.815920   0.001238  -0.000959   3.341045  -6.488242  -5.060387  18.295125   0.000143  -0.000383 -13.694166  -2.027793   3.766971  -6.899756  -0.000642   0.001936
 -2.193095   0.904268   5.098109  -3.937605  -9.580563   2.939512  10.049754  -3.492341  -0.692762   1.485461  -3.572880   0.016545  -0.186766  -1.995939   1.658485   2.686114  -4.024359   3.437419   5.796766   0.601423  44.903481  -0.035655  72.649231   0.031058   0.751781   1.310900  -4.162056   0.803379  -0.769678  -6.513800  -0.051622  -6.867553 -44.592213  -0.149770 -79.481081  -0.137651  -2.300921  -4.142262   8.058424 -25.757476  -1.950155  -7.421073  73.028112   0.004628  -0.005241  -7.292655 -10.461330   3.210701  -0.697326   0.001389  -0.001179   2.990795  -6.563312  -5.630431  18.507935   0.000359  -0.000220 -13.717595  -2.042183   3.890166  -6.635561  -0.000552   0.001718
 -2.191024   0.903399   5.095111  -3.970439  -9.457536   3.346947   9.993349  -3.595494  -0.898675   1.552320  -3.646012  -0.173321  -0.126452  -2.052383   1.658537   2.592647  -4.232627   3.219214   5.596993   0.300837  44.641781  -0.036952  73.041200   0.031927   0.709455   1.284847  -4.186768   1.022425  -0.828176  -6.735078   0.843412  -7.228280 -44.841225  -0.146131 -78.846722  -0.133644  -2.301541  -3.970775   7.750251 -25.505759  -2.046253  -7.939230  74.938151   0.001944  -0.006523  -7.014124 -10.582402   3.243023  -0.587055   0.001444  -0.001323   2.630499  -6.626338  -6.182041  18.700313   0.000476  -0.000158 -13.766077  -2.056949   3.997078  -6.323285  -0.000462   0.001475
 -2.189040   0.902509   5.092059  -3.980483  -9.372332   3.742192   9.938474  -3.679641  -1.103286   1.610545  -3.702438  -0.364540  -0.071475  -2.105005   1.657957   2.497460  -4.420582   3.009206   5.402814   0.024190  44.392146  -0.037184  73.409140   0.031903   0.670007   1.273094  -4.225856   1.232611  -0.878491  -6.948024   1.682741  -7.565339 -45.071955  -0.139106 -78.252205  -0.126586  -2.303610  -3.790805   7.450526 -25.242138  -2.142648  -8.423988  76.723662  -0.000487  -0.007332  -6.753802 -10.695446   3.273541  -0.485118   0.001431  -0.001401   2.261592  -6.677642  -6.711811  18.869835   0.000522  -0.000154 -13.830938  -2.070845   4.091400  -5.971081  -0.000380   0.001206
 -2.187139   0.901615   5.088945  -3.970708  -9.319187   4.123440   9.888791  -3.748821  -1.303906   1.663413  -3.745996  -0.553505  -0.020740  -2.154034   1.656487   2.402695  -4.590119   2.809599   5.215763  -0.230168  44.156047  -0.036554  73.754266   0.031172   0.633055   1.271990  -4.270772   1.431528  -0.923223  -7.150258   2.467591  -7.881368 -45.284738  -0.130275 -77.696149  -0.118001  -2.305684  -3.611683   7.162784 -24.973510  -2.239587  -8.875703  78.392048  -0.002602  -0.007739  -6.510581 -10.800930   3.302356  -0.391256   0.001370  -0.001427   1.886073  -6.717693  -7.218135  19.016311   0.000520  -0.000177 -13.905658  -2.083183   4.175835  -5.586729  -0.000310   0.000916
 -2.185155   0.900868   5.086014  -3.899783  -9.270476   4.538715   9.721516  -3.790303  -1.493240   1.725498  -3.821076  -0.757362   0.070463  -2.194336   1.622944   2.291877  -4.792042   2.546282   5.009935  -0.399047  43.884265  -0.039817  74.245648   0.033611   0.550756   1.089140  -4.182594   1.628386  -0.993136  -7.329506   3.316933  -8.186915 -45.495535  -0.128975 -76.969650  -0.116559  -2.303686  -3.572694   6.930085 -24.533251  -2.369818  -9.428353  79.361158  -0.003316  -0.008001  -6.110272 -10.883533   3.366749  -0.296810   0.001260  -0.001489   1.497001  -6.710274  -7.761711  19.079997   0.000477  -0.000147 -13.871068  -2.017679   4.263109  -5.317033  -0.000229   0.000963
